<?xml version="1.0" encoding="UTF-8" standalone="no"?>
<!-- Generator: Adobe Illustrator 16.0.0, SVG Export Plug-In . SVG Version: 6.00 Build 0)  -->

<svg
   xmlns:dc="http://purl.org/dc/elements/1.1/"
   xmlns:cc="http://creativecommons.org/ns#"
   xmlns:rdf="http://www.w3.org/1999/02/22-rdf-syntax-ns#"
   xmlns:svg="http://www.w3.org/2000/svg"
   xmlns="http://www.w3.org/2000/svg"
   xmlns:sodipodi="http://sodipodi.sourceforge.net/DTD/sodipodi-0.dtd"
   xmlns:inkscape="http://www.inkscape.org/namespaces/inkscape"
   version="1.1"
   id="Layer_1"
   x="0px"
   y="0px"
   inkscape:version="0.48.2 r9819"
   width="171.62399"
   height="387.76077"
   sodipodi:docname="gulp.svg">
  <metadata
     id="metadata19">
    <rdf:RDF>
      <cc:Work
         rdf:about="">
        <dc:format>image/svg+xml</dc:format>
        <dc:type
           rdf:resource="http://purl.org/dc/dcmitype/StillImage" />
      </cc:Work>
    </rdf:RDF>
  </metadata>
  <defs
     id="defs17" />
  <sodipodi:namedview
     pagecolor="#ffffff"
     bordercolor="#666666"
     borderopacity="1"
     objecttolerance="10"
     gridtolerance="10"
     guidetolerance="10"
     inkscape:pageopacity="0"
     inkscape:pageshadow="2"
     inkscape:window-width="640"
     inkscape:window-height="480"
     id="namedview15"
     showgrid="false"
     fit-margin-top="0"
     fit-margin-left="0"
     fit-margin-right="0"
     fit-margin-bottom="0"
     inkscape:zoom="0.22425739"
     inkscape:cx="372.04724"
     inkscape:cy="-138.42031"
     inkscape:window-x="0"
     inkscape:window-y="0"
     inkscape:window-maximized="0"
     inkscape:current-layer="Layer_1" />
  <path
     style="fill:#e94b4b"
     d="m 85.245,304.641 c -0.066,0 -0.133,0 -0.199,0 -0.066,0 -0.133,0 -0.199,0 0.066,0 0.133,0 0.199,0 C 55.72,304.62 30.759,300.149 20.978,293.862 l 11.987,19.178 4.376,59.719 c 0,0 47.775,33.754 95.006,0 l 3.465,-60.369 10.33,-16.895 c -11.297,5.414 -34.383,9.127 -61.096,9.146 0.066,0 0.133,0 0.199,0 z"
     id="path3"
     inkscape:connector-curvature="0" />
  <path
     style="fill:#e94b4b"
     d="m 149.987,222.997 c -2.086,1.576 -4.125,2.797 -6.113,3.658 -1.99,0.863 -4.119,1.295 -6.389,1.295 -2.129,0 -3.775,-0.465 -4.938,-1.395 -1.162,-0.928 -1.744,-2.205 -1.744,-3.832 0,-0.133 0,-0.256 0,-0.373 0,-0.115 0.014,-0.258 0.043,-0.424 0.111,-0.994 0.547,-2.141 1.303,-3.434 0.756,-1.295 1.666,-2.639 2.73,-4.031 1.064,-1.395 2.199,-2.805 3.404,-4.232 1.205,-1.426 2.318,-2.777 3.342,-4.057 1.021,-1.275 1.869,-2.445 2.541,-3.508 0.674,-1.062 1.01,-1.924 1.01,-2.588 0,-0.398 -0.141,-0.713 -0.42,-0.947 -0.281,-0.23 -0.744,-0.348 -1.387,-0.348 -1.121,0 -2.277,0.291 -3.467,0.871 -1.191,0.58 -2.369,1.361 -3.531,2.34 -1.162,0.979 -2.297,2.1 -3.404,3.359 -1.105,1.262 -2.143,2.572 -3.109,3.932 -0.967,1.361 -1.848,2.73 -2.646,4.107 -0.798,1.377 -1.479,2.646 -2.039,3.807 -0.168,0.365 -0.406,0.881 -0.715,1.543 -0.309,0.664 -0.645,1.412 -1.008,2.24 -0.365,0.83 -0.75,1.686 -1.156,2.562 -0.406,0.881 -0.777,1.711 -1.113,2.49 -0.336,0.779 -0.637,1.475 -0.902,2.09 -0.268,0.613 -0.457,1.037 -0.568,1.27 -0.141,0.299 -0.371,0.861 -0.693,1.691 -0.322,0.83 -0.693,1.801 -1.113,2.912 -0.42,1.111 -0.861,2.281 -1.324,3.51 -0.461,1.227 -0.896,2.389 -1.303,3.484 -0.406,1.094 -0.764,2.057 -1.07,2.887 -0.309,0.828 -0.506,1.393 -0.59,1.691 -0.279,0.863 -0.609,1.675 -0.986,2.44 -0.379,0.762 -0.812,1.434 -1.303,2.016 -0.49,0.58 -1.051,1.045 -1.682,1.393 -0.631,0.35 -1.338,0.523 -2.121,0.523 -1.01,0 -1.842,-0.242 -2.502,-0.723 -0.656,-0.48 -0.986,-1.402 -0.986,-2.762 0,-0.664 0.084,-1.344 0.252,-2.04 0.168,-0.697 0.379,-1.387 0.631,-2.066 0.252,-0.682 0.512,-1.344 0.777,-1.99 0.266,-0.648 0.512,-1.27 0.734,-1.867 1.514,-3.318 3.055,-6.645 4.623,-9.98 1.568,-3.334 3.074,-6.635 4.518,-9.904 0.301,-0.682 0.576,-1.35 0.869,-2.027 -0.088,0.086 -0.174,0.176 -0.26,0.26 -1.822,1.76 -3.635,3.311 -5.441,4.654 -1.809,1.344 -3.602,2.414 -5.379,3.211 -1.779,0.795 -3.51,1.193 -5.191,1.193 -1.148,0 -2.107,-0.182 -2.877,-0.547 -0.771,-0.365 -1.387,-0.863 -1.85,-1.492 -0.463,-0.631 -0.793,-1.377 -0.988,-2.24 -0.066,-0.295 -0.107,-0.604 -0.15,-0.91 -0.492,0.383 -0.988,0.756 -1.488,1.109 -1.736,1.227 -3.445,2.215 -5.127,2.961 -1.68,0.746 -3.193,1.119 -4.537,1.119 -1.346,0 -2.438,-0.447 -3.279,-1.344 -0.84,-0.895 -1.26,-2.422 -1.26,-4.578 0,-1.527 0.225,-3.303 0.672,-5.326 -0.729,1.295 -1.639,2.605 -2.73,3.932 -1.094,1.328 -2.34,2.539 -3.74,3.635 -1.402,1.094 -2.971,1.982 -4.707,2.662 -1.738,0.68 -3.629,1.02 -5.673,1.02 -0.925,0 -1.813,-0.115 -2.669,-0.348 -0.854,-0.232 -1.604,-0.631 -2.248,-1.195 -0.645,-0.562 -1.162,-1.318 -1.555,-2.264 -0.393,-0.946 -0.588,-2.133 -0.588,-3.559 0,-0.033 0.056,-0.539 0.168,-1.52 0.111,-0.979 0.469,-2.521 1.071,-4.629 0.603,-2.105 1.534,-4.836 2.794,-8.188 1.262,-3.352 3.04,-7.416 5.338,-12.193 0.588,-1.262 1.268,-2.166 2.037,-2.713 0.771,-0.548 1.604,-0.822 2.5,-0.822 0.393,0 0.799,0.059 1.219,0.174 0.422,0.117 0.812,0.298 1.178,0.548 0.363,0.248 0.658,0.564 0.883,0.945 0.223,0.381 0.336,0.82 0.336,1.318 0,0.332 -0.043,0.648 -0.127,0.945 -0.141,0.566 -0.441,1.303 -0.902,2.215 -0.463,0.914 -1.002,1.959 -1.619,3.137 -0.615,1.178 -1.268,2.447 -1.953,3.809 -0.688,1.359 -1.324,2.77 -1.912,4.23 -0.588,1.46 -1.093,2.945 -1.513,4.455 -0.421,1.51 -0.659,2.979 -0.714,4.404 0,0.598 0.139,1.145 0.42,1.643 0.279,0.498 0.742,0.746 1.387,0.746 1.82,0 3.557,-0.598 5.211,-1.791 1.652,-1.195 3.178,-2.68 4.58,-4.455 1.4,-1.775 2.668,-3.684 3.803,-5.725 1.135,-2.041 2.08,-3.906 2.836,-5.6 0.533,-1.127 1.002,-2.34 1.408,-3.633 0.406,-1.295 0.848,-2.488 1.324,-3.584 0.476,-1.096 1.021,-2.008 1.639,-2.738 0.615,-0.729 1.387,-1.094 2.311,-1.094 1.01,0 1.807,0.382 2.396,1.145 0.588,0.764 0.881,1.676 0.881,2.736 0,0.598 -0.188,1.42 -0.566,2.465 -0.378,1.045 -0.855,2.24 -1.43,3.584 -0.575,1.344 -1.197,2.779 -1.869,4.305 -0.672,1.527 -1.297,3.078 -1.869,4.654 -0.576,1.576 -1.051,3.119 -1.43,4.629 -0.379,1.51 -0.566,2.912 -0.566,4.205 0,1.195 0.615,1.793 1.848,1.793 0.869,0 1.947,-0.299 3.236,-0.896 1.289,-0.597 2.641,-1.436 4.055,-2.514 0.354,-0.27 0.709,-0.551 1.062,-0.846 0.395,-1.629 0.857,-3.135 1.396,-4.504 0.98,-2.59 1.975,-5.16 2.984,-7.715 1.008,-2.555 1.932,-4.895 2.773,-7.02 l 12.732,-32.104 c 0.504,-1.294 1.184,-2.207 2.037,-2.738 0.855,-0.53 1.717,-0.796 2.586,-0.796 0.867,0 1.658,0.282 2.373,0.846 0.715,0.565 1.072,1.477 1.072,2.738 0,0.597 -0.119,1.228 -0.357,1.891 -0.238,0.665 -0.539,1.377 -0.904,2.141 -0.699,1.56 -1.533,3.468 -2.5,5.724 -0.967,2.257 -2.004,4.712 -3.109,7.367 -1.107,2.655 -2.242,5.417 -3.404,8.288 -1.162,2.871 -2.297,5.666 -3.404,8.386 -1.105,2.723 -2.143,5.301 -3.109,7.74 -0.966,2.439 -1.799,4.555 -2.5,6.346 -0.309,0.764 -0.609,1.652 -0.902,2.664 -0.295,1.012 -0.441,1.916 -0.441,2.713 0,0.496 0.084,0.895 0.252,1.193 0.168,0.298 0.49,0.449 0.967,0.449 0.588,0 1.322,-0.207 2.205,-0.623 0.883,-0.414 1.834,-0.963 2.857,-1.643 1.023,-0.68 2.088,-1.459 3.193,-2.34 1.107,-0.879 2.207,-1.791 3.299,-2.736 1.094,-0.947 2.137,-1.893 3.131,-2.838 0.994,-0.945 1.885,-1.816 2.67,-2.613 0.184,-0.191 0.404,-0.326 0.646,-0.428 0.473,-1.412 0.904,-2.797 1.285,-4.15 0.225,-0.598 0.533,-1.443 0.926,-2.539 0.391,-1.096 0.84,-2.174 1.344,-3.236 0.504,-1.061 1.072,-1.982 1.701,-2.762 0.631,-0.779 1.311,-1.17 2.039,-1.17 1.121,0 1.934,0.258 2.438,0.771 0.504,0.516 0.756,1.27 0.756,2.266 0,0.199 -0.027,0.514 -0.084,0.945 -0.057,0.431 -0.125,0.889 -0.209,1.369 -0.084,0.48 -0.176,0.938 -0.273,1.369 -0.1,0.432 -0.189,0.746 -0.273,0.945 1.035,-1.129 2.156,-2.248 3.361,-3.359 1.205,-1.111 2.451,-2.117 3.74,-3.012 1.289,-0.896 2.605,-1.625 3.951,-2.191 1.344,-0.563 2.689,-0.845 4.033,-0.845 0.924,0 1.842,0.133 2.752,0.398 0.91,0.265 1.725,0.656 2.438,1.169 0.715,0.516 1.297,1.162 1.744,1.941 0.447,0.779 0.672,1.684 0.672,2.713 0,1.361 -0.342,2.812 -1.029,4.355 -0.686,1.543 -1.547,3.094 -2.584,4.652 -1.037,1.561 -2.158,3.078 -3.361,4.555 -1.205,1.477 -2.332,2.82 -3.383,4.031 -1.051,1.213 -1.934,2.24 -2.648,3.086 -0.713,0.848 -1.086,1.42 -1.113,1.719 0,0.398 0.127,0.721 0.379,0.971 0.252,0.248 0.672,0.373 1.26,0.373 0.477,0 1.178,-0.266 2.102,-0.797 0.924,-0.531 2.221,-1.451 3.887,-2.762 1.666,-1.311 3.783,-3.07 6.346,-5.277 1.758,-1.512 3.816,-3.314 6.135,-5.366 l 11.859,-102.909 h -0.08 c -12.027,5.759 -45.816,11.842 -85.623,11.842 -39.801,0 -73.592,-6.083 -85.621,-11.842 H 0.139 l 9.01,94.457 c 0.478,-1.627 1.009,-3.252 1.598,-4.871 1.204,-3.318 2.599,-6.562 4.181,-9.731 1.583,-3.168 3.306,-6.164 5.169,-8.984 1.862,-2.82 3.845,-5.417 5.946,-7.79 2.102,-2.372 4.258,-4.413 6.472,-6.122 2.213,-1.708 4.447,-3.044 6.702,-4.007 2.256,-0.962 4.49,-1.443 6.703,-1.443 2.549,0 5.015,0.697 7.396,2.09 2.381,1.394 4.607,3.651 6.682,6.77 0.476,0.697 0.777,1.402 0.902,2.115 0.127,0.714 0.189,1.386 0.189,2.016 0,1.493 -0.357,2.672 -1.071,3.534 -0.714,0.863 -1.562,1.294 -2.542,1.294 -0.897,0 -1.73,-0.473 -2.501,-1.418 -0.771,-0.945 -1.632,-2.297 -2.585,-4.057 -0.896,-1.593 -1.884,-2.745 -2.962,-3.459 -1.079,-0.713 -2.248,-1.07 -3.509,-1.07 -1.961,0 -4.055,0.813 -6.282,2.439 -2.228,1.626 -4.434,3.775 -6.618,6.446 -2.186,2.671 -4.28,5.724 -6.283,9.158 -2.003,3.434 -3.775,6.952 -5.316,10.552 -1.541,3.602 -2.766,7.152 -3.676,10.652 -0.911,3.5 -1.366,6.645 -1.366,9.432 0,0.93 0.063,1.885 0.188,2.861 0.127,0.98 0.364,1.867 0.715,2.664 0.35,0.797 0.826,1.451 1.429,1.965 0.603,0.516 1.366,0.771 2.29,0.771 1.037,0 2.213,-0.348 3.53,-1.045 1.316,-0.695 2.683,-1.609 4.097,-2.736 1.415,-1.129 2.837,-2.406 4.266,-3.834 1.43,-1.426 2.76,-2.869 3.992,-4.33 1.232,-1.459 2.325,-2.861 3.277,-4.205 0.953,-1.344 1.667,-2.514 2.144,-3.51 l 3.908,-11.697 c 0.476,-1.26 1.099,-2.156 1.87,-2.688 0.77,-0.53 1.562,-0.796 2.375,-0.796 0.391,0 0.783,0.067 1.176,0.199 0.393,0.133 0.742,0.34 1.051,0.622 0.309,0.282 0.553,0.647 0.735,1.095 0.182,0.448 0.272,0.971 0.272,1.567 0,1.593 -0.14,3.085 -0.42,4.48 -0.279,1.395 -0.637,2.754 -1.071,4.082 -0.435,1.326 -0.918,2.662 -1.45,4.006 -0.532,1.344 -1.051,2.746 -1.555,4.207 -0.111,0.166 -0.314,0.688 -0.609,1.566 -0.294,0.881 -0.65,1.984 -1.071,3.311 -0.42,1.328 -0.876,2.812 -1.366,4.455 -0.49,1.643 -0.994,3.318 -1.512,5.027 -0.52,1.709 -1.016,3.385 -1.492,5.027 -0.476,1.642 -0.904,3.127 -1.281,4.455 -0.379,1.326 -0.693,2.438 -0.946,3.334 -0.252,0.896 -0.406,1.426 -0.462,1.594 -0.141,0.529 -0.365,1.119 -0.672,1.766 -0.309,0.646 -0.673,1.262 -1.094,1.842 -0.42,0.58 -0.882,1.062 -1.387,1.443 -0.504,0.381 -1.022,0.572 -1.555,0.572 -0.896,0 -1.548,-0.299 -1.953,-0.895 -0.407,-0.598 -0.609,-1.693 -0.609,-3.285 0,-0.234 0,-0.467 0,-0.697 0,-0.232 0.014,-0.482 0.041,-0.746 0.027,-0.531 0.238,-1.527 0.631,-2.988 0.393,-1.459 0.861,-3.109 1.408,-4.951 0.546,-1.842 1.135,-3.75 1.765,-5.725 0.63,-1.975 1.197,-3.74 1.702,-5.301 -1.486,1.66 -3.096,3.311 -4.833,4.953 -1.737,1.642 -3.517,3.119 -5.337,4.43 -1.821,1.311 -3.656,2.381 -5.505,3.211 -1.849,0.828 -3.628,1.244 -5.337,1.244 -1.961,0 -3.649,-0.432 -5.064,-1.295 -0.256,-0.156 -0.496,-0.332 -0.736,-0.506 l 5.725,60.019 3.332,5.33 c 9.781,6.287 34.742,10.758 64.068,10.779 26.713,-0.02 49.799,-3.732 61.096,-9.146 l 4.26,-6.963 8.221,-71.339 c -0.68,0.623 -1.34,1.232 -1.973,1.822 -2.356,2.196 -4.577,4.079 -6.665,5.655 z"
     id="path5"
     inkscape:connector-curvature="0" />
  <path
     style="fill:#e94b4b"
     d="M 85.812,88.066 C 38.419,88.066 0,92.519 0,98.013 c 0,5.491 38.419,13.567 85.812,13.567 47.398,0 85.812,-8.076 85.812,-13.567 0,-5.494 -38.414,-9.947 -85.812,-9.947 z m 15.304,15.694 c -5.488,0 -10.369,-1.659 -10.369,-3.088 0,-0.548 0.723,-1.129 1.916,-1.638 0.662,-1.219 4.189,-2.151 8.453,-2.151 4.197,0 7.684,0.903 8.424,2.094 1.312,0.523 2.123,1.127 2.123,1.696 0,1.428 -5.059,3.087 -10.547,3.087 z"
     id="path7"
     inkscape:connector-curvature="0" />
  <path
     style="fill:#e94b4b"
     d="m 101.116,102.012 c 4.734,0 8.574,-1.148 8.574,-2.565 0,-0.161 -0.055,-0.318 -0.15,-0.471 -1.982,-0.79 -5.121,-1.392 -8.424,-1.392 -3.383,0 -6.531,0.631 -8.453,1.45 -0.072,0.135 -0.121,0.272 -0.121,0.414 0,1.416 3.838,2.564 8.574,2.564 z"
     id="path9"
     inkscape:connector-curvature="0" />
  <g
     id="g11">
    <polygon
       style="fill:#e94b4b"
       points="92.866,99.382 109.499,99.382 122.37,54.304 163.644,8.616 152.179,0 106.028,48.562 "
       id="polygon13" />
  </g>
</svg>
