<?xml version="1.0" encoding="UTF-8" standalone="no"?>
<!-- Created with Inkscape (http://www.inkscape.org/) -->

<svg
   xmlns:dc="http://purl.org/dc/elements/1.1/"
   xmlns:cc="http://creativecommons.org/ns#"
   xmlns:rdf="http://www.w3.org/1999/02/22-rdf-syntax-ns#"
   xmlns:svg="http://www.w3.org/2000/svg"
   xmlns="http://www.w3.org/2000/svg"
   version="1.1"
   width="721.26465"
   height="313.79874"
   id="svg2"
   xml:space="preserve"><metadata
     id="metadata8"><rdf:RDF><cc:Work
         rdf:about=""><dc:format>image/svg+xml</dc:format><dc:type
           rdf:resource="http://purl.org/dc/dcmitype/StillImage" /><dc:title></dc:title></cc:Work></rdf:RDF></metadata><defs
     id="defs6"><clipPath
       id="clipPath18"><path
         d="M 0,792 612,792 612,0 0,0 0,792 z"
         id="path20" /></clipPath></defs><g
     transform="matrix(1.25,0,0,-1.25,-12.72625,693.89625)"
     id="g10"><path
       d="m 10.181,304.078 251.121,0 0,251.039 -251.121,0 0,-251.039 z"
       id="path12"
       style="fill:#fadf42;fill-opacity:1;fill-rule:nonzero;stroke:none" /><g
       id="g14"><g
         clip-path="url(#clipPath18)"
         id="g16"><g
           transform="translate(76.1245,345.541)"
           id="g22"><path
             d="m 0,0 19.192,11.613 c 3.703,-6.564 7.071,-12.119 15.15,-12.119 7.744,0 12.626,3.029 12.626,14.813 l 0,80.133 23.568,0 0,-80.467 c 0,-24.411 -14.308,-35.522 -35.183,-35.522 C 16.499,-21.549 5.556,-11.785 0,0"
             id="path24"
             style="fill:#424342;fill-opacity:1;fill-rule:nonzero;stroke:none" /></g><g
           transform="translate(159.457,348.0645)"
           id="g26"><path
             d="m 0,0 19.19,11.111 c 5.052,-8.248 11.617,-14.308 23.232,-14.308 9.765,0 15.992,4.881 15.992,11.615 0,8.08 -6.396,10.943 -17.171,15.656 L 35.353,26.6 C 18.349,33.838 7.069,42.928 7.069,62.12 c 0,17.675 13.468,31.143 34.512,31.143 14.982,0 25.756,-5.219 33.499,-18.854 L 56.73,62.625 c -4.04,7.238 -8.416,10.099 -15.149,10.099 -6.903,0 -11.28,-4.377 -11.28,-10.099 0,-7.071 4.377,-9.933 14.477,-14.31 l 5.891,-2.526 C 70.703,37.203 81.982,28.451 81.982,8.756 81.982,-12.457 65.316,-24.072 42.927,-24.072 21.042,-24.072 6.901,-13.635 0,0"
             id="path28"
             style="fill:#424342;fill-opacity:1;fill-rule:nonzero;stroke:none" /></g><g
           transform="translate(75.4648,344.9844)"
           id="g30"><path
             d="M 0,0 19.343,11.707 C 23.076,5.09 26.47,-0.51 34.614,-0.51 c 7.805,0 12.726,3.055 12.726,14.932 l 0,80.767 23.755,0 0,-81.105 C 71.095,-10.52 56.672,-21.719 35.632,-21.719 16.628,-21.719 5.599,-11.877 0,0"
             id="path32"
             style="fill:#373535;fill-opacity:1;fill-rule:nonzero;stroke:none" /></g><g
           transform="translate(159.4541,347.5293)"
           id="g34"><path
             d="m 0,0 19.343,11.199 c 5.091,-8.314 11.708,-14.424 23.416,-14.424 9.841,0 16.119,4.922 16.119,11.709 0,8.145 -6.447,11.03 -17.307,15.78 l -5.939,2.545 C 18.495,34.105 7.126,43.268 7.126,62.611 c 0,17.816 13.575,31.39 34.784,31.39 15.102,0 25.961,-5.259 33.766,-19.003 L 57.182,63.121 C 53.109,70.417 48.697,73.3 41.91,73.3 c -6.956,0 -11.368,-4.411 -11.368,-10.179 0,-7.127 4.412,-10.012 14.592,-14.423 l 5.939,-2.546 C 71.265,37.498 82.633,28.676 82.633,8.824 82.633,-12.557 65.835,-24.264 43.268,-24.264 21.21,-24.264 6.957,-13.744 0,0"
             id="path36"
             style="fill:#373535;fill-opacity:1;fill-rule:nonzero;stroke:none" /></g><g
           transform="translate(285.332,440.1733)"
           id="g38"><path
             d="m 0,0 23.755,0 0,-48.867 49.376,0 0,48.867 23.756,0 0,-115.38 -23.756,0 0,45.302 -49.376,0 0,-45.302 L 0,-115.38 0,0 z"
             id="path40"
             style="fill:#373535;fill-opacity:1;fill-rule:nonzero;stroke:none" /></g><path
           d="m 404.107,397.076 22.907,0 0,-72.283 -22.907,0 0,72.283 z m -3.053,26.468 c 0,8.315 6.787,14.254 14.592,14.254 7.805,0 14.422,-5.939 14.422,-14.254 0,-8.483 -6.617,-14.421 -14.422,-14.421 -7.805,0 -14.592,5.938 -14.592,14.421"
           id="path42"
           style="fill:#373535;fill-opacity:1;fill-rule:nonzero;stroke:none" /><g
           transform="translate(445.8477,397.0757)"
           id="g44"><path
             d="m 0,0 22.906,0 -0.509,-11.878 c 4.412,8.654 12.896,13.404 22.907,13.404 15.78,0 27.148,-11.537 27.148,-32.068 l 0,-41.741 -22.906,0 0,40.213 c 0,8.145 -3.903,12.727 -12.048,12.727 -9.162,0 -14.592,-5.09 -14.592,-14.254 l 0,-38.686 L 0,-72.283 0,0 z"
             id="path46"
             style="fill:#373535;fill-opacity:1;fill-rule:nonzero;stroke:none" /></g><g
           transform="translate(541.8887,351.9414)"
           id="g48"><path
             d="m 0,0 0,26.131 -10.69,0 0,19.003 10.69,0 0,25.791 22.736,0 0,-25.791 18.495,0 0,-19.003 -18.495,0 0,-26.811 c 0,-7.295 2.375,-8.822 5.939,-8.822 3.733,0 6.448,2.035 7.975,3.055 l 8.654,-15.951 C 41.74,-25.283 35.632,-29.016 25.111,-29.016 10.52,-29.016 0,-21.719 0,0"
             id="path50"
             style="fill:#373535;fill-opacity:1;fill-rule:nonzero;stroke:none" /></g></g></g></g></svg>