<?xml version="1.0" encoding="UTF-8" standalone="no"?>
<!-- Generator: Adobe Illustrator 15.0.0, SVG Export Plug-In . SVG Version: 6.00 Build 0)  -->

<svg
   xmlns:dc="http://purl.org/dc/elements/1.1/"
   xmlns:cc="http://creativecommons.org/ns#"
   xmlns:rdf="http://www.w3.org/1999/02/22-rdf-syntax-ns#"
   xmlns:svg="http://www.w3.org/2000/svg"
   xmlns="http://www.w3.org/2000/svg"
   xmlns:sodipodi="http://sodipodi.sourceforge.net/DTD/sodipodi-0.dtd"
   xmlns:inkscape="http://www.inkscape.org/namespaces/inkscape"
   version="1.1"
   id="Layer_1"
   x="0px"
   y="0px"
   width="177.60699"
   height="50.159916"
   viewBox="0 0 177.607 50.159918"
   enable-background="new 0 0 235.262 174.415"
   xml:space="preserve"
   inkscape:version="0.48.2 r9819"
   sodipodi:docname="nodejs-light.svg"><metadata
   id="metadata29"><rdf:RDF><cc:Work
       rdf:about=""><dc:format>image/svg+xml</dc:format><dc:type
         rdf:resource="http://purl.org/dc/dcmitype/StillImage" /></cc:Work></rdf:RDF></metadata><defs
   id="defs27">
	
	
	
	
	
	
	
	
</defs><sodipodi:namedview
   pagecolor="#ffffff"
   bordercolor="#666666"
   borderopacity="1"
   objecttolerance="10"
   gridtolerance="10"
   guidetolerance="10"
   inkscape:pageopacity="0"
   inkscape:pageshadow="2"
   inkscape:window-width="2556"
   inkscape:window-height="1396"
   id="namedview25"
   showgrid="false"
   fit-margin-top="0"
   fit-margin-left="0"
   fit-margin-right="0"
   fit-margin-bottom="0"
   inkscape:zoom="3.8271297"
   inkscape:cx="225.29394"
   inkscape:cy="111.82508"
   inkscape:window-x="5"
   inkscape:window-y="0"
   inkscape:window-maximized="0"
   inkscape:current-layer="Layer_1" />
<path
   style="fill:#46483e;fill-rule:evenodd"
   inkscape:connector-curvature="0"
   id="path5"
   d="m 27.948999,26.657418 c 0,-0.542 -0.285,-1.04 -0.753,-1.309 l -12.469,-7.176 c -0.211,-0.124 -0.447,-0.188 -0.687,-0.198 -0.021,0 -0.111,0 -0.129,0 -0.238,0.01 -0.475,0.074 -0.688,0.198 l -12.46900011,7.176 c -0.465,0.269 -0.7540000003002,0.767 -0.7540000003002,1.309 l 0.0270000003,19.322 c 0,0.27 0.14,0.52 0.376,0.65 0.231,0.14 0.518,0.14 0.74800001,0 l 7.41,-4.243 c 0.469,-0.278 0.754,-0.77 0.754,-1.307 v -9.026 c 0,-0.538 0.285,-1.037 0.7520001,-1.304 l 3.155,-1.817 c 0.235,-0.137 0.492,-0.203 0.755,-0.203 0.257,0 0.521,0.066 0.749,0.203 l 3.154,1.817 c 0.467,0.267 0.753,0.766 0.753,1.304 v 9.026 c 0,0.537 0.289,1.032 0.755,1.307 l 7.408,4.243 c 0.232,0.14 0.522,0.14 0.753,0 0.229,-0.131 0.374,-0.381 0.374,-0.65 l 0.026,-19.322 z"
   clip-rule="evenodd" /><path
   style="fill:#46483e;fill-rule:evenodd"
   inkscape:connector-curvature="0"
   id="path7"
   d="m 94.528999,0.09541781 c -0.233,-0.13 -0.518,-0.127 -0.749,0.008 -0.229,0.135 -0.371,0.382 -0.371,0.649 V 19.887418 c 0,0.188 -0.101,0.362 -0.263,0.457 -0.163,0.094 -0.364,0.094 -0.528,0 l -3.122,-1.799 c -0.467,-0.269 -1.04,-0.268 -1.505,0 l -12.474,7.199 c -0.466,0.269 -0.753,0.766 -0.753,1.304 v 14.4 c 0,0.538 0.287,1.035 0.753,1.305 l 12.473,7.204 c 0.467,0.27 1.041,0.27 1.507,0 l 12.476001,-7.204 c 0.466,-0.27 0.753,-0.767 0.753,-1.305 V 5.5534178 c 0,-0.546 -0.295,-1.049 -0.772,-1.315 L 94.528999,0.09541781 z m -1.157,36.62300019 c 0,0.135 -0.072,0.259 -0.188,0.326 l -4.283,2.468 c -0.116,0.067 -0.259,0.067 -0.375,0 l -4.283,-2.468 c -0.117,-0.067 -0.188,-0.191 -0.188,-0.326 v -4.945 c 0,-0.135 0.072,-0.259 0.188,-0.326 l 4.283,-2.474 c 0.117,-0.067 0.26,-0.067 0.377,0 l 4.282,2.474 c 0.116,0.067 0.188,0.191 0.188,0.326 v 4.945 z"
   clip-rule="evenodd" /><path
   style="fill:#46483e;fill-rule:evenodd"
   inkscape:connector-curvature="0"
   id="path9"
   d="m 139.155,31.644418 c 0.465,-0.27 0.75,-0.766 0.75,-1.303 v -3.49 c 0,-0.537 -0.285,-1.033 -0.75,-1.303 l -12.394,-7.196 c -0.466,-0.271 -1.042,-0.271 -1.509,-0.002 l -12.47,7.199 c -0.466,0.269 -0.753,0.766 -0.753,1.304 v 14.396 c 0,0.541 0.291,1.041 0.761,1.309 l 12.392,7.061 c 0.457,0.262 1.018,0.264 1.477,0.009 l 7.495,-4.166 c 0.238,-0.133 0.387,-0.382 0.388,-0.653 0.002,-0.271 -0.143,-0.522 -0.378,-0.658 l -12.548,-7.202 c -0.234,-0.134 -0.379,-0.384 -0.379,-0.653 v -4.512 c 0,-0.269 0.144,-0.518 0.377,-0.652 l 3.905,-2.252 c 0.232,-0.134 0.52,-0.134 0.752,0 l 3.907,2.252 c 0.233,0.135 0.377,0.384 0.377,0.652 v 3.55 c 0,0.27 0.145,0.519 0.378,0.653 0.233,0.134 0.521,0.133 0.754,-0.002 l 7.468,-4.341 z"
   clip-rule="evenodd" /><path
   style="fill:#8cc84b;fill-rule:evenodd"
   inkscape:connector-curvature="0"
   id="path11"
   d="m 50.630999,18.275418 c 0.466,-0.269 1.04,-0.269 1.506,0 l 12.472,7.197 c 0.466,0.269 0.753,0.766 0.753,1.305 v 14.406 c 0,0.538 -0.287,1.035 -0.753,1.305 l -12.472,7.203 c -0.466,0.27 -1.041,0.27 -1.507,0 l -12.469,-7.203 c -0.466,-0.27 -0.753,-0.767 -0.753,-1.305 v -14.406 c 0,-0.538 0.287,-1.035 0.753,-1.304 l 12.47,-7.198 z"
   clip-rule="evenodd" /><path
   style="fill:#8cc84b"
   inkscape:connector-curvature="0"
   id="path13"
   d="m 163.372,49.896418 c -0.43,0 -0.857,-0.112 -1.233,-0.33 l -3.927,-2.323 c -0.586,-0.327 -0.3,-0.443 -0.106,-0.511 0.782,-0.271 0.94,-0.334 1.775,-0.808 0.087,-0.05 0.202,-0.03 0.292,0.021 l 3.017,1.791 c 0.109,0.062 0.264,0.062 0.364,0 l 11.761,-6.788 c 0.109,-0.062 0.18,-0.188 0.18,-0.317 v -13.573 c 0,-0.133 -0.07,-0.257 -0.183,-0.324 l -11.756,-6.782 c -0.108,-0.063 -0.253,-0.063 -0.362,0 l -11.753,6.784 c -0.114,0.065 -0.187,0.193 -0.187,0.322 v 13.573 c 0,0.13 0.072,0.252 0.186,0.313 l 3.222,1.862 c 1.748,0.873 2.818,-0.156 2.818,-1.19 v -13.4 c 0,-0.189 0.152,-0.339 0.342,-0.339 h 1.491 c 0.187,0 0.341,0.149 0.341,0.339 v 13.4 c 0,2.333 -1.271,3.671 -3.482,3.671 -0.68,0 -1.215,0 -2.709,-0.735 l -3.084,-1.776 c -0.762,-0.439 -1.233,-1.264 -1.233,-2.145 v -13.573 c 0,-0.882 0.472,-1.705 1.233,-2.144 l 11.761,-6.796 c 0.744,-0.421 1.733,-0.421 2.472,0 l 11.76,6.796 c 0.762,0.44 1.235,1.262 1.235,2.144 v 13.573 c 0,0.881 -0.474,1.701 -1.235,2.145 l -11.76,6.79 c -0.378,0.217 -0.804,0.33 -1.24,0.33 z" /><path
   style="fill:#8cc84b"
   inkscape:connector-curvature="0"
   id="path15"
   d="m 167.005,40.545418 c -5.146,0 -6.225,-2.362 -6.225,-4.343 0,-0.189 0.151,-0.34 0.34,-0.34 h 1.521 c 0.17,0 0.312,0.123 0.338,0.288 0.229,1.548 0.914,2.33 4.026,2.33 2.478,0 3.532,-0.561 3.532,-1.875 0,-0.758 -0.299,-1.32 -4.149,-1.698 -3.218,-0.317 -5.208,-1.029 -5.208,-3.604 0,-2.372 2,-3.788 5.354,-3.788 3.768,0 5.632,1.307 5.868,4.113 0.009,0.098 -0.025,0.19 -0.09,0.262 -0.064,0.067 -0.154,0.108 -0.249,0.108 h -1.526 c -0.158,0 -0.298,-0.112 -0.33,-0.266 -0.366,-1.628 -1.257,-2.148 -3.673,-2.148 -2.705,0 -3.02,0.942 -3.02,1.647 0,0.855 0.371,1.104 4.023,1.588 3.614,0.479 5.331,1.154 5.331,3.695 0,2.564 -2.136,4.031 -5.863,4.031 z" /><path
   style="fill:#8cc84b;fill-rule:evenodd"
   inkscape:connector-curvature="0"
   id="path23"
   d="m 125.823,30.969418 c 0.09,-0.052 0.199,-0.052 0.289,0 l 2.394,1.381 c 0.09,0.052 0.145,0.146 0.145,0.25 v 2.765 c 0,0.103 -0.055,0.198 -0.145,0.25 l -2.394,1.381 c -0.09,0.052 -0.199,0.052 -0.289,0 l -2.392,-1.381 c -0.09,-0.052 -0.145,-0.147 -0.145,-0.25 v -2.765 c 0,-0.104 0.055,-0.198 0.145,-0.25 l 2.392,-1.381 z"
   clip-rule="evenodd" />
</svg>